#!OML:ASF I:\Actors\actors\Patient Classification 1\Patient 1\Session 1\Subject1.ASF
:FULLY-SPECIFIED
:DEGREES
547
root 0.857751 17.5483 8.54287 9.78217 0.92175 -9.15421
lowerback 1.1144 0.297948 6.94844
upperback -1.48122 0.602726 2.91488
thorax -2.11877 0.215216 -0.902841
lowerneck -8.31555 -3.93126 -2.39569
upperneck 45.5896 -7.42084 3.81521
head 19.1439 -2.91614 0.990104
rclavicle 1.77912e-014 -2.62396e-014
rhumerus 2.12959 63.1883 -93.0451
rradius 137.652
rwrist -5.45806
rhand -29.8552 -66.4042
rfingers 7.12502
rthumb -3.17761 96.3603
lclavicle 1.77912e-014 -2.62396e-014
lhumerus -14.7991 -67.0671 107.311
lradius 135.352
lwrist 16.2483
lhand -53.5675 -38.4708
lfingers 7.12502
lthumb -26.0092 -10.2309
rfemur -6.06895 25.3532 25.2149
rtibia 4.68564
rfoot -12.8783 -24.4538
rtoes 2.18433
lfemur 0.730848 -41.3179 -7.44866
ltibia -3.41519
lfoot -16.7972 47.4031
ltoes 4.58961
548
root 0.858125 17.5466 8.54922 9.72086 0.932035 -9.17472
lowerback 1.10365 0.27723 6.95014
upperback -1.53531 0.578175 2.94071
thorax -2.17073 0.200759 -0.876367
lowerneck -8.36691 -4.01543 -2.47847
upperneck 45.3901 -7.4973 3.7664
head 19.0296 -2.96989 0.963148
rclavicle -2.5314e-015 1.16786e-014
rhumerus 3.36476 63.7776 -91.7167
rradius 137.329
rwrist -5.78981
rhand -30.8459 -69.5031
rfingers 7.12502
rthumb -4.1343 99.4427
lclavicle -2.5314e-015 1.16786e-014
lhumerus -15.2839 -66.9724 107.708
lradius 134.969
lwrist 15.9986
lhand -53.3255 -36.9929
lfingers 7.12502
lthumb -25.7776 -8.71915
rfemur -5.96605 25.2981 25.2862
rtibia 4.68076
rfoot -12.877 -24.4094
rtoes 2.0635
lfemur 0.89544 -41.4113 -7.54038
ltibia -3.43848
lfoot -16.9519 47.4716
ltoes 4.44991
549
root 0.858528 17.5442 8.5568 9.64536 0.973717 -9.2626
lowerback 1.08699 0.287382 7.05944
upperback -1.58727 0.596249 2.95817
thorax -2.21365 0.205983 -0.919266
lowerneck -8.41574 -4.11818 -2.67465
upperneck 45.1131 -7.66443 3.94538
head 18.8963 -3.05077 1.05048
rclavicle -1.17252e-015 -4.09745e-014
rhumerus 3.32711 63.6657 -91.7378
rradius 137.099
rwrist -5.76429
rhand -30.7511 -71.1077
rfingers 7.12502
rthumb -4.04276 101.049
lclavicle -1.17252e-015 -4.09745e-014
lhumerus -15.939 -66.9871 108.453
lradius 134.592
lwrist 15.6484
lhand -53.2954 -35.0683
lfingers 7.12502
lthumb -25.7487 -6.79038
rfemur -5.82006 25.2161 25.4536
rtibia 4.6566
rfoot -12.8697 -24.3619
rtoes 1.87968
lfemur 1.08058 -41.4783 -7.55359
ltibia -3.48774
lfoot -16.8953 47.5018
ltoes 4.34361
550
root 0.858326 17.5423 8.56606 9.57757 1.01266 -9.34566
lowerback 1.04224 0.318428 7.15576
upperback -1.67155 0.641071 2.9645
thorax -2.27236 0.223523 -0.967016
lowerneck -8.38348 -4.21076 -2.81661
upperneck 44.8144 -7.82819 4.1282
head 18.7256 -3.12225 1.13176
rclavicle 1.09425e-014 -4.88762e-014
rhumerus 2.6575 63.2128 -92.4307
rradius 137.037
rwrist -5.52454
rhand -30.1436 -71.2786
rfingers 7.12502
rthumb -3.45616 101.23
lclavicle 1.09425e-014 -4.88762e-014
lhumerus -16.4989 -66.8732 109.118
lradius 134.371
lwrist 15.5389
lhand -53.285 -33.9317
lfingers 7.12502
lthumb -25.7388 -5.65236
rfemur -5.681 25.2354 25.6113
rtibia 4.64382
rfoot -12.9668 -24.3773
rtoes 2.05391
lfemur 1.22773 -41.4226 -7.53433
ltibia -3.53853
lfoot -16.8109 47.4394
ltoes 4.18812
551
root 0.85847 17.5417 8.57731 9.5298 1.03422 -9.34121
lowerback 0.957545 0.349609 7.15823
upperback -1.7784 0.68121 2.95393
thorax -2.3326 0.239668 -0.979821
lowerneck -8.279 -4.27848 -2.86212
upperneck 44.5232 -7.93439 4.21027
head 18.5247 -3.16877 1.15901
rclavicle -7.82715e-015 5.96354e-016
rhumerus 2.23232 62.882 -92.9236
rradius 137.096
rwrist -5.42777
rhand -29.9552 -70.9245
rfingers 7.12502
rthumb -3.27423 100.879
lclavicle -7.82715e-015 5.96354e-016
lhumerus -16.7563 -66.7124 109.519
lradius 134.357
lwrist 15.6957
lhand -53.3856 -33.1168
lfingers 7.12502
lthumb -25.8351 -4.85141
rfemur -5.57456 25.2234 25.649
rtibia 4.63861
rfoot -13.0448 -24.3803
rtoes 2.23149
lfemur 1.33171 -41.3544 -7.60989
ltibia -3.53765
lfoot -16.8086 47.3472
ltoes 4.14898
552
root 0.858017 17.5419 8.58965 9.48865 1.06354 -9.30702
lowerback 0.836555 0.371883 7.12693
upperback -1.86644 0.70373 2.93652
thorax -2.35417 0.249041 -0.980195
lowerneck -8.1598 -4.30132 -2.80075
upperneck 44.1586 -7.97482 4.25574
head 18.262 -3.1773 1.1605
rclavicle -1.00231e-014 -5.03919e-014
rhumerus 2.18567 62.7738 -93.0972
rradius 137.189
rwrist -5.23222
rhand -30.1113 -69.8624
rfingers 7.12502
rthumb -3.42496 99.8146
lclavicle -1.00231e-014 -5.03919e-014
lhumerus -16.8175 -66.6805 109.765
lradius 134.469
lwrist 15.7302
lhand -53.3307 -32.625
lfingers 7.12502
lthumb -25.7825 -4.35196
rfemur -5.48569 25.1422 25.6503
rtibia 4.63606
rfoot -13.0225 -24.3681
rtoes 2.08445
lfemur 1.43888 -41.3782 -7.72703
ltibia -3.52562
lfoot -16.8282 47.32
ltoes 4.13182
553
root 0.856516 17.5415 8.60161 9.44253 1.09529 -9.28988
lowerback 0.72622 0.388381 7.09878
upperback -1.94357 0.719281 2.9325
thorax -2.37106 0.255375 -0.968353
lowerneck -8.10308 -4.30984 -2.65112
upperneck 43.7977 -7.96593 4.18672
head 18.0053 -3.16475 1.09933
rclavicle -2.60501e-014 -1.77167e-014
rhumerus 2.36541 62.892 -93.0431
rradius 137.343
rwrist -4.98997
rhand -30.1699 -68.4324
rfingers 7.12502
rthumb -3.48152 98.3837
lclavicle -2.60501e-014 -1.77167e-014
lhumerus -16.892 -66.8653 110.03
lradius 134.612
lwrist 14.9817
lhand -52.8981 -32.4517
lfingers 7.12502
lthumb -25.3681 -4.11917
rfemur -5.41129 25.084 25.6755
rtibia 4.67018
rfoot -13.0387 -24.3487
rtoes 1.9114
lfemur 1.54841 -41.3623 -7.81516
ltibia -3.52846
lfoot -16.754 47.3008
ltoes 3.90106
554
root 0.855636 17.5407 8.61396 9.36726 1.12593 -9.2878
lowerback 0.655093 0.390202 7.0955
upperback -2.03011 0.720866 2.95455
thorax -2.42104 0.25345 -0.943282
lowerneck -8.10654 -4.32028 -2.66595
upperneck 43.5485 -7.93868 4.14455
head 17.8479 -3.16548 1.08373
rclavicle -5.87191e-015 -2.44754e-015
rhumerus 2.74077 63.0355 -92.8348
rradius 137.524
rwrist -4.87611
rhand -29.6827 -67.3229
rfingers 7.12502
rthumb -3.01099 97.2814
lclavicle -5.87191e-015 -2.44754e-015
lhumerus -16.7492 -67.1998 110.129
lradius 134.752
lwrist 13.6011
lhand -52.6554 -32.4258
lfingers 7.12502
lthumb -25.1356 -4.06047
rfemur -5.27246 25.1026 25.7462
rtibia 4.69855
rfoot -13.142 -24.3744
rtoes 2.03976
lfemur 1.71246 -41.3171 -7.92381
ltibia -3.54357
lfoot -16.7128 47.2376
ltoes 3.71071
555
root 0.855737 17.5393 8.62625 9.29733 1.185 -9.29296
lowerback 0.595273 0.36399 7.11941
upperback -2.15434 0.689568 2.98912
thorax -2.51886 0.232697 -0.919534
lowerneck -8.10124 -4.27314 -2.81857
upperneck 43.366 -7.86401 4.27064
head 17.7487 -3.14697 1.1804
rclavicle 1.0475e-014 2.24223e-014
rhumerus 3.29166 63.0981 -92.5081
rradius 137.651
rwrist -4.88294
rhand -28.635 -66.8067
rfingers 7.12502
rthumb -1.99923 96.7771
lclavicle 1.0475e-014 2.24223e-014
lhumerus -16.5506 -67.6035 110.13
lradius 135.057
lwrist 12.9521
lhand -52.6145 -32.3727
lfingers 7.12502
lthumb -25.0964 -4.00191
rfemur -5.09887 25.157 25.8329
rtibia 4.67251
rfoot -13.2551 -24.4708
rtoes 2.40061
lfemur 1.86298 -41.322 -8.01921
ltibia -3.55189
lfoot -16.7936 47.1612
ltoes 3.6987
556
root 0.856059 17.5376 8.63733 9.27661 1.26486 -9.28108
lowerback 0.512719 0.365271 7.16411
upperback -2.32785 0.695376 2.97684
thorax -2.65192 0.227526 -0.956347
lowerneck -8.02934 -4.21578 -2.76465
upperneck 43.1531 -7.79346 4.32695
head 17.5974 -3.10673 1.20801
rclavicle 7.54489e-015 2.99792e-014
rhumerus 3.73091 63.0505 -92.2266
rradius 137.736
rwrist -4.8729
rhand -27.8112 -66.9258
rfingers 7.12502
rthumb -1.20355 96.9022
lclavicle 7.54489e-015 2.99792e-014
lhumerus -16.4799 -68.013 110.188
lradius 135.399
lwrist 13.2313
lhand -52.4636 -31.6829
lfingers 7.12502
lthumb -24.9519 -3.29196
rfemur -5.00133 25.1421 25.8585
rtibia 4.62873
rfoot -13.3204 -24.5202
rtoes 2.65985
lfemur 1.894 -41.2824 -8.05674
ltibia -3.53258
lfoot -16.7816 47.0567
ltoes 3.61952
